<mxfile host="app.diagrams.net" agent="Mozilla/5.0 (X11; Linux x86_64; rv:138.0) Gecko/20100101 Firefox/138.0" version="27.0.5">
  <diagram name="Page-1" id="66OcU1Mlk18ETJSLa1L3">
    <mxGraphModel dx="1106" dy="584" grid="1" gridSize="10" guides="1" tooltips="1" connect="1" arrows="1" fold="1" page="1" pageScale="1" pageWidth="850" pageHeight="1100" math="0" shadow="0">
      <root>
        <mxCell id="0" />
        <mxCell id="1" parent="0" />
        <mxCell id="2B83ke_9YiT4R1_KNsam-4" value="" style="edgeStyle=orthogonalEdgeStyle;rounded=0;orthogonalLoop=1;jettySize=auto;html=1;" edge="1" parent="1" source="2B83ke_9YiT4R1_KNsam-1" target="2B83ke_9YiT4R1_KNsam-3">
          <mxGeometry relative="1" as="geometry" />
        </mxCell>
        <mxCell id="2B83ke_9YiT4R1_KNsam-1" value="Find &quot;you &quot; in the list of words" style="rounded=0;whiteSpace=wrap;html=1;" vertex="1" parent="1">
          <mxGeometry x="80" y="150" width="210" height="70" as="geometry" />
        </mxCell>
        <mxCell id="2B83ke_9YiT4R1_KNsam-6" value="" style="edgeStyle=orthogonalEdgeStyle;rounded=0;orthogonalLoop=1;jettySize=auto;html=1;" edge="1" parent="1" source="2B83ke_9YiT4R1_KNsam-3" target="2B83ke_9YiT4R1_KNsam-5">
          <mxGeometry relative="1" as="geometry" />
        </mxCell>
        <mxCell id="2B83ke_9YiT4R1_KNsam-3" value="Get the next word" style="rounded=0;whiteSpace=wrap;html=1;" vertex="1" parent="1">
          <mxGeometry x="370" y="150" width="200" height="70" as="geometry" />
        </mxCell>
        <mxCell id="2B83ke_9YiT4R1_KNsam-5" value="Return that word after" style="rounded=0;whiteSpace=wrap;html=1;" vertex="1" parent="1">
          <mxGeometry x="570" y="470" width="200" height="70" as="geometry" />
        </mxCell>
        <mxCell id="2B83ke_9YiT4R1_KNsam-8" style="edgeStyle=orthogonalEdgeStyle;rounded=0;orthogonalLoop=1;jettySize=auto;html=1;" edge="1" parent="1" source="2B83ke_9YiT4R1_KNsam-7" target="2B83ke_9YiT4R1_KNsam-1">
          <mxGeometry relative="1" as="geometry" />
        </mxCell>
        <mxCell id="2B83ke_9YiT4R1_KNsam-7" value="Turn the string into a list of words" style="rounded=0;whiteSpace=wrap;html=1;" vertex="1" parent="1">
          <mxGeometry x="80" y="310" width="210" height="70" as="geometry" />
        </mxCell>
      </root>
    </mxGraphModel>
  </diagram>
</mxfile>
